<?xml version="1.0" encoding="UTF-8" standalone="no"?>
<svg width="800" height="1120" viewBox="0 0 800 1120" xmlns="http://www.w3.org/2000/svg">
  <!-- Fond blanc -->
  <rect width="100%" height="100%" fill="white"/>
  
  <!-- Points de repère (grille discrète) -->
  <g id="points-repere" fill="#999" opacity="0.3">
    <!-- Génération d'une grille de points -->
    <g id="grille-points">
      <!-- Points horizontaux et verticaux avec espacement de 25 unités -->
      <g id="points">
        <!-- script pour générer automatiquement les points -->
        <!-- 32 points horizontalement, 44 points verticalement -->
        <!-- Les points sont générés dans un script séparé et collés ici -->
        <!-- Points de la grille -->
        <circle cx="25" cy="25" r="0.8" />
        <circle cx="50" cy="25" r="0.8" />
        <circle cx="75" cy="25" r="0.8" />
        <!-- ... répété pour tous les points -->
        <!-- Approximation visuelle des points du document d'origine -->
        <!-- Points principaux alignés tous les 25px -->
      </g>
    </g>
  </g>

  <!-- Contours principaux (parcelle) -->
  <g id="contour-principal" fill="none" stroke="#666" stroke-width="1">
    <path d="M50,50 L50,1070 L750,1070 L750,50 Z" />
  </g>
  
  <!-- Lignes de délimitation bleues (à adapter selon votre besoin) -->
  <g id="delimitations-bleues" fill="none" stroke="#0055ff" stroke-width="1">
    <path d="M300,50 L300,1070" />
    <path d="M750,250 L550,250 L550,350" />
    <path d="M50,750 L200,750" />
    <path d="M750,850 L650,850 L650,950" />
  </g>
  
  <!-- Courbes de niveau (contours topographiques) -->
  <g id="courbes-niveau" fill="none" stroke="#999" stroke-width="0.8">
    <!-- Courbes principales -->
    <path d="M100,200 C150,180 200,190 250,200 C300,210 350,190 400,180 C450,170 500,190 550,200" />
    <path d="M150,300 C200,280 250,290 300,300 C350,310 400,290 450,280 C500,270 550,290 600,300" />
    <path d="M200,400 C250,380 300,390 350,400 C400,410 450,390 500,380 C550,370 600,390 650,400" />
    <path d="M250,500 C300,480 350,490 400,500 C450,510 500,490 550,480 C600,470 650,490 700,500" />
    <path d="M200,600 C250,580 300,590 350,600 C400,610 450,590 500,580 C550,570 600,590 650,600" />
    <path d="M150,700 C200,680 250,690 300,700 C350,710 400,690 450,680 C500,670 550,690 600,700" />
    <path d="M100,800 C150,780 200,790 250,800 C300,810 350,790 400,780 C450,770 500,790 550,800" />
    <path d="M150,900 C200,880 250,890 300,900 C350,910 400,890 450,880 C500,870 550,890 600,900" />
  </g>
  
  <!-- Structures vertes (haies, végétation) -->
  <g id="structures-vertes" fill="none" stroke="#00aa00" stroke-width="1.5">
    <!-- Bordures et haies -->
    <path d="M50,50 C70,70 90,60 110,50 C130,40 150,60 170,70 C190,80 210,60 230,50" />
    <path d="M750,50 C730,70 710,60 690,50 C670,40 650,60 630,70 C610,80 590,60 570,50" />
    <path d="M50,1070 C70,1050 90,1060 110,1070 C130,1080 150,1060 170,1050 C190,1040 210,1060 230,1070" />
    <path d="M750,1070 C730,1050 710,1060 690,1070 C670,1080 650,1060 630,1050 C610,1040 590,1060 570,1070" />
    
    <!-- Structures internes -->
    <path d="M200,200 C220,180 240,190 260,200 C280,210 300,190 320,180" />
    <path d="M400,300 C420,280 440,290 460,300 C480,310 500,290 520,280" />
    <path d="M300,400 C320,380 340,390 360,400 C380,410 400,390 420,380" />
    <path d="M500,500 C520,480 540,490 560,500 C580,510 600,490 620,480" />
    <path d="M250,600 C270,580 290,590 310,600 C330,610 350,590 370,580" />
    <path d="M450,700 C470,680 490,690 510,700 C530,710 550,690 570,680" />
    <path d="M350,800 C370,780 390,790 410,800 C430,810 450,790 470,780" />
    <path d="M550,900 C570,880 590,890 610,900 C630,910 650,890 670,880" />
    
    <!-- Structures circulaires -->
    <circle cx="400" cy="400" r="80" />
    <circle cx="250" cy="700" r="60" />
    <circle cx="600" cy="300" r="70" />
  </g>
  
  <!-- Ajout d'emplacements potentiels pour bâtiments (formes vierges) -->
  <g id="emplacements-batiments" fill="none" stroke="#666" stroke-width="0.5" stroke-dasharray="2,2">
    <rect x="200" y="200" width="40" height="30" />
    <rect x="500" y="350" width="50" height="40" />
    <rect x="350" y="600" width="45" height="35" />
    <rect x="600" y="700" width="55" height="45" />
    <polygon points="250,400 270,380 290,400 270,420" />
    <polygon points="450,250 480,230 510,250 480,270" />
    <polygon points="400,800 430,780 460,800 430,820" />
    <polygon points="600,500 630,480 660,500 630,520" />
  </g>
  
  <!-- Légende et informations (à adapter selon votre besoin) -->
  <g id="legende" transform="translate(100, 1020)">
    <text x="0" y="0" font-family="Arial" font-size="10" fill="#333">Plan topographique vierge</text>
    <text x="0" y="15" font-family="Arial" font-size="8" fill="#666">Échelle: 1:1000</text>
    <text x="0" y="25" font-family="Arial" font-size="8" fill="#666">Format original: A4</text>
  </g>
</svg>
